<svg version="1.1" id="Layer_1" xmlns="http://www.w3.org/2000/svg" xmlns:xlink="http://www.w3.org/1999/xlink" x="0px" y="0px"
	 width="100%" viewBox="0 0 216 200" enable-background="new 0 0 216 200" xml:space="preserve">
<path fill="#000000" opacity="1.000000" stroke="none" 
	d="
M147.000000,201.000000 
	C98.000000,201.000000 49.500008,201.000000 1.000006,201.000000 
	C1.000004,134.333344 1.000004,67.666679 1.000002,1.000015 
	C72.999992,1.000010 144.999985,1.000010 216.999969,1.000005 
	C216.999985,67.666649 216.999985,134.333298 217.000000,200.999969 
	C193.833328,201.000000 170.666672,201.000000 147.000000,201.000000 
M41.041477,153.848450 
	C41.041477,156.103561 41.041477,158.358673 41.041477,160.856918 
	C44.159023,160.856918 46.619469,160.856918 49.999947,160.980087 
	C92.240257,160.980087 134.480560,160.980087 176.834427,160.980087 
	C176.834427,136.242432 176.834427,112.115662 176.981293,87.160370 
	C176.960678,85.479095 176.940063,83.797821 176.962723,81.199539 
	C176.974258,80.385643 176.898911,79.559494 177.011749,78.759895 
	C177.631165,74.370903 175.963776,72.287956 171.370758,72.980782 
	C170.575760,73.100700 169.745483,72.986649 168.990433,72.050369 
	C168.990433,67.112236 168.990433,62.174103 168.990433,57.165169 
	C165.928604,57.165169 163.454224,57.165169 160.055130,57.019413 
	C139.144135,57.019413 118.233147,57.019413 97.198128,57.019413 
	C97.040459,54.083702 96.910728,51.668201 96.762909,48.916012 
	C93.994194,48.916012 91.525017,48.916012 89.005623,48.023151 
	C89.005623,45.761227 89.005623,43.499306 89.005623,41.279060 
	C72.682495,41.279060 56.939701,41.279060 41.165684,41.279060 
	C41.165684,44.033932 41.165684,46.510532 41.019482,49.915981 
	C41.068054,68.270706 41.116623,86.625435 41.023048,105.910294 
	C41.069508,116.262970 41.115967,126.615646 41.030243,137.897049 
	C41.072987,142.915741 41.115726,147.934433 41.041477,153.848450 
z"/>
<path fill="#FEC244" opacity="1.000000" stroke="none" 
	d="
M89.055840,48.916008 
	C91.525017,48.916012 93.994194,48.916012 96.762909,48.916012 
	C96.910728,51.668201 97.040459,54.083702 97.198128,57.019413 
	C118.233147,57.019413 139.144135,57.019413 160.522400,57.548126 
	C160.984299,62.996540 160.978943,67.916245 160.510971,72.903793 
	C125.794289,72.971626 91.540237,72.971626 57.060284,72.971626 
	C57.060284,76.100349 57.060284,78.577599 56.604984,81.032242 
	C53.884853,81.009636 51.620022,81.009636 48.835770,81.009636 
	C48.835770,89.388214 48.835770,97.181931 48.409897,104.981750 
	C45.711082,104.985291 43.438141,104.982727 41.165192,104.980164 
	C41.116623,86.625435 41.068054,68.270706 41.550701,49.454487 
	C57.739895,48.967331 73.397865,48.941669 89.055840,48.916008 
z"/>
<path fill="#F29A38" opacity="1.000000" stroke="none" 
	d="
M176.834427,87.988892 
	C176.834427,112.115662 176.834427,136.242432 176.834427,160.980087 
	C134.480560,160.980087 92.240257,160.980087 49.515709,160.485535 
	C49.035568,157.669113 49.039669,155.347214 49.024139,153.005875 
	C49.004513,152.986420 48.980728,153.036316 49.423195,153.021881 
	C52.220634,152.988770 54.575603,152.970093 57.402790,152.965729 
	C90.204727,152.986603 122.534531,152.962738 154.864075,153.041580 
	C158.556793,153.050583 161.536194,152.984619 161.200119,147.943832 
	C161.140060,147.043015 163.206055,145.126526 164.210342,145.180084 
	C168.543304,145.411240 169.065201,143.123627 169.047592,139.599487 
	C168.963455,122.768913 169.047379,105.937508 169.279892,88.971695 
	C169.749069,88.624786 169.956192,88.369080 170.435547,88.208984 
	C172.785782,88.228340 174.810104,88.108620 176.834427,87.988892 
z"/>
<path fill="#3E241D" opacity="1.000000" stroke="none" 
	d="
M57.060284,81.054848 
	C57.060284,78.577599 57.060284,76.100349 57.060284,72.971626 
	C91.540237,72.971626 125.794289,72.971626 160.949463,72.968246 
	C164.210907,72.970139 166.571198,72.975403 168.931503,72.980667 
	C169.745483,72.986649 170.575760,73.100700 171.370758,72.980782 
	C175.963776,72.287956 177.631165,74.370903 177.011749,78.759895 
	C176.898911,79.559494 176.974258,80.385643 176.553589,81.609634 
	C173.794708,81.988571 171.444962,81.957420 168.847366,81.562263 
	C166.777267,81.132172 164.955032,81.009811 163.132721,81.008316 
	C127.737350,80.979309 92.341988,80.964409 56.974930,80.973785 
	C57.003239,81.000954 57.060284,81.054848 57.060284,81.054848 
z"/>
<path fill="#FEE67D" opacity="1.000000" stroke="none" 
	d="
M89.030731,48.469582 
	C73.397865,48.941669 57.739895,48.967331 41.623802,48.990067 
	C41.165684,46.510532 41.165684,44.033932 41.165684,41.279060 
	C56.939701,41.279060 72.682495,41.279060 89.005623,41.279060 
	C89.005623,43.499306 89.005623,45.761227 89.030731,48.469582 
z"/>
<path fill="#F29A38" opacity="1.000000" stroke="none" 
	d="
M41.094124,105.445229 
	C43.438141,104.982727 45.711082,104.985291 48.474709,105.447922 
	C48.923840,116.258827 48.882290,126.609650 48.414391,136.970917 
	C45.712837,136.977005 43.437630,136.972656 41.162426,136.968323 
	C41.115967,126.615646 41.069508,116.262970 41.094124,105.445229 
z"/>
<path fill="#F29A38" opacity="1.000000" stroke="none" 
	d="
M168.960968,72.515518 
	C166.571198,72.975403 164.210907,72.970139 161.412109,72.900406 
	C160.978943,67.916245 160.984299,62.996540 160.984741,57.621002 
	C163.454224,57.165169 165.928604,57.165169 168.990433,57.165169 
	C168.990433,62.174103 168.990433,67.112236 168.960968,72.515518 
z"/>
<path fill="#D66327" opacity="1.000000" stroke="none" 
	d="
M41.096336,137.432678 
	C43.437630,136.972656 45.712837,136.977005 48.471283,137.436981 
	C48.963261,142.940521 48.971996,147.988419 48.980728,153.036316 
	C48.980728,153.036316 49.004513,152.986420 48.584076,152.999481 
	C45.828587,152.992737 43.493526,152.972931 41.158470,152.953125 
	C41.115726,147.934433 41.072987,142.915741 41.096336,137.432678 
z"/>
<path fill="#9B5C21" opacity="1.000000" stroke="none" 
	d="
M41.099976,153.400787 
	C43.493526,152.972931 45.828587,152.992737 48.603706,153.018936 
	C49.039669,155.347214 49.035568,157.669113 49.055695,160.423950 
	C46.619469,160.856918 44.159023,160.856918 41.041477,160.856918 
	C41.041477,158.358673 41.041477,156.103561 41.099976,153.400787 
z"/>
<path fill="#FFD149" opacity="1.000000" stroke="none" 
	d="
M169.095200,81.926270 
	C171.444962,81.957420 173.794708,81.988571 176.531952,82.068130 
	C176.940063,83.797821 176.960678,85.479095 176.907867,87.574631 
	C174.810104,88.108620 172.785782,88.228340 170.345245,87.824997 
	C169.651077,85.510048 169.373138,83.718155 169.095200,81.926270 
z"/>
<path fill="#3E241D" opacity="1.000000" stroke="none" 
	d="
M49.423195,153.021881 
	C48.971996,147.988419 48.963261,142.940521 48.897633,137.426544 
	C48.882290,126.609650 48.923840,116.258827 48.900581,105.441818 
	C48.835770,97.181931 48.835770,89.388214 48.835770,81.009636 
	C51.620022,81.009636 53.884853,81.009636 56.604984,81.032242 
	C57.060284,81.054848 57.003239,81.000954 56.997841,81.445343 
	C57.050243,89.589081 57.108040,97.288429 57.096428,105.452652 
	C56.994869,121.595482 56.962723,137.273453 56.930576,152.951416 
	C54.575603,152.970093 52.220634,152.988770 49.423195,153.021881 
z"/>
<path fill="#FFD149" opacity="1.000000" stroke="none" 
	d="
M57.402790,152.965714 
	C56.962723,137.273453 56.994869,121.595482 57.530922,105.455338 
	C64.991798,104.968903 64.991913,104.968903 64.999863,97.820236 
	C65.001343,96.490570 65.119263,95.148415 64.979767,93.833626 
	C64.587723,90.138306 66.176857,88.928101 69.848198,88.943153 
	C102.922310,89.078827 135.997009,89.071648 169.071533,89.106392 
	C169.047379,105.937508 168.963455,122.768913 169.047592,139.599487 
	C169.065201,143.123627 168.543304,145.411240 164.210342,145.180084 
	C163.206055,145.126526 161.140060,147.043015 161.200119,147.943832 
	C161.536194,152.984619 158.556793,153.050583 154.864075,153.041580 
	C122.534531,152.962738 90.204727,152.986603 57.402790,152.965714 
z"/>
<path fill="#FEE67D" opacity="1.000000" stroke="none" 
	d="
M169.279907,88.971695 
	C135.997009,89.071648 102.922310,89.078827 69.848198,88.943153 
	C66.176857,88.928101 64.587723,90.138306 64.979767,93.833626 
	C65.119263,95.148415 65.001343,96.490570 64.999863,97.820236 
	C64.991913,104.968903 64.991798,104.968903 57.600330,104.990471 
	C57.108040,97.288429 57.050243,89.589081 56.969532,81.418167 
	C92.341988,80.964409 127.737350,80.979309 163.132721,81.008316 
	C164.955032,81.009811 166.777267,81.132172 168.847366,81.562263 
	C169.373138,83.718155 169.651077,85.510048 170.019318,87.685913 
	C169.956192,88.369080 169.749069,88.624786 169.279907,88.971695 
z"/>
</svg>